<svg width="900" height="1260" viewBox="0 0 900 1260" fill="none" xmlns="http://www.w3.org/2000/svg">
  <defs>
    <linearGradient id="bg" x1="104" y1="72" x2="792" y2="1188" gradientUnits="userSpaceOnUse">
      <stop stop-color="#07131E"/>
      <stop offset="1" stop-color="#071019"/>
    </linearGradient>
    <radialGradient id="glowA" cx="0" cy="0" r="1" gradientUnits="userSpaceOnUse" gradientTransform="translate(244 180) rotate(28) scale(320 286)">
      <stop stop-color="#8DF1FF" stop-opacity=".42"/>
      <stop offset="1" stop-color="#8DF1FF" stop-opacity="0"/>
    </radialGradient>
    <radialGradient id="glowB" cx="0" cy="0" r="1" gradientUnits="userSpaceOnUse" gradientTransform="translate(716 276) rotate(90) scale(260 220)">
      <stop stop-color="#8FCBFF" stop-opacity=".22"/>
      <stop offset="1" stop-color="#8FCBFF" stop-opacity="0"/>
    </radialGradient>
    <pattern id="grid" width="42" height="42" patternUnits="userSpaceOnUse">
      <path d="M42 0H0V42" stroke="#8DF1FF" stroke-opacity=".12"/>
    </pattern>
  </defs>

  <rect width="900" height="1260" fill="#060D14"/>
  <rect width="900" height="1260" fill="url(#bg)"/>
  <rect width="900" height="1260" fill="url(#grid)" opacity=".55"/>
  <rect width="900" height="1260" fill="url(#glowA)"/>
  <rect width="900" height="1260" fill="url(#glowB)"/>

  <rect x="96" y="96" width="708" height="1068" rx="58" fill="rgba(214,247,255,.08)" stroke="#DAFDFF" stroke-opacity=".46" stroke-width="4"/>
  <rect x="124" y="124" width="652" height="1008" rx="46" fill="rgba(8,16,27,.82)" stroke="#86EEFF" stroke-opacity=".26"/>
  <rect x="136" y="136" width="628" height="818" rx="38" fill="rgba(255,255,255,.04)" stroke="#8DF1FF" stroke-opacity=".22" stroke-width="2"/>
  <rect x="136" y="970" width="628" height="126" rx="32" fill="rgba(5,12,18,.64)" stroke="#8DF1FF" stroke-opacity=".2"/>

  <path d="M168 180C220 180 246 148 290 148H612C648 148 676 170 724 170" stroke="#DFFBFF" stroke-opacity=".7" stroke-width="8" stroke-linecap="round"/>
  <path d="M174 1008H724" stroke="#DFFBFF" stroke-opacity=".2"/>
  <path d="M176 1036H428" stroke="#8DF1FF" stroke-opacity=".24" stroke-width="8" stroke-linecap="round"/>
</svg>
