<svg width="900" height="1260" viewBox="0 0 900 1260" fill="none" xmlns="http://www.w3.org/2000/svg">
  <defs>
    <linearGradient id="bg" x1="92" y1="66" x2="822" y2="1194" gradientUnits="userSpaceOnUse">
      <stop stop-color="#25140E"/>
      <stop offset="1" stop-color="#120A08"/>
    </linearGradient>
    <radialGradient id="glowA" cx="0" cy="0" r="1" gradientUnits="userSpaceOnUse" gradientTransform="translate(224 204) rotate(28) scale(314 280)">
      <stop stop-color="#F8C78E" stop-opacity=".46"/>
      <stop offset="1" stop-color="#F8C78E" stop-opacity="0"/>
    </radialGradient>
    <radialGradient id="glowB" cx="0" cy="0" r="1" gradientUnits="userSpaceOnUse" gradientTransform="translate(690 980) rotate(90) scale(280 220)">
      <stop stop-color="#FFBC7A" stop-opacity=".22"/>
      <stop offset="1" stop-color="#FFBC7A" stop-opacity="0"/>
    </radialGradient>
    <filter id="shadow" x="72" y="90" width="756" height="1088" filterUnits="userSpaceOnUse" color-interpolation-filters="sRGB">
      <feDropShadow dx="0" dy="28" stdDeviation="38" flood-color="#000000" flood-opacity=".48"/>
    </filter>
  </defs>

  <rect width="900" height="1260" fill="#0C0908"/>
  <rect width="900" height="1260" fill="url(#bg)"/>
  <rect width="900" height="1260" fill="url(#glowA)"/>
  <rect width="900" height="1260" fill="url(#glowB)"/>

  <g filter="url(#shadow)">
    <rect x="110" y="102" width="680" height="1030" rx="44" fill="rgba(255,249,242,.09)" stroke="#FFF0DF" stroke-opacity=".42" stroke-width="4"/>
    <rect x="132" y="124" width="636" height="916" rx="34" fill="#1A1411"/>
    <rect x="144" y="136" width="612" height="792" rx="30" fill="rgba(255,255,255,.06)"/>
    <rect x="144" y="940" width="612" height="92" rx="26" fill="rgba(255,248,238,.08)"/>
    <rect x="164" y="964" width="188" height="10" rx="5" fill="#F8C78E" fill-opacity=".36"/>
    <rect x="164" y="990" width="256" height="6" rx="3" fill="#FFF0DF" fill-opacity=".16"/>
  </g>

  <g opacity=".4">
    <rect x="110" y="102" width="680" height="1030" rx="44" stroke="#FFFFFF" stroke-opacity=".12"/>
    <path d="M166 164H742" stroke="#F8C78E" stroke-opacity=".12"/>
    <path d="M166 914H742" stroke="#F8C78E" stroke-opacity=".12"/>
  </g>

  <path d="M138 146L234 122" stroke="#FFF0DF" stroke-opacity=".35" stroke-width="20" stroke-linecap="round"/>
  <path d="M670 118L756 164" stroke="#FFF0DF" stroke-opacity=".22" stroke-width="18" stroke-linecap="round"/>
</svg>
