<?xml version="1.0" standalone="no"?>
<svg xmlns="http://www.w3.org/2000/svg" version="1.1" width="1200" height="1200">
	<!-- Created with https://api.qrserver.com (QR Code API, see goQR.me/api for information) -->
	<title>QR Code</title>
	<desc>http://47.86.85.236:3000/</desc>
	<rect style="fill:rgb(255, 255, 255);fill-opacity:1" x="0" y="0" width="1200" height="1200" />
	<g id="elements">
		<path style="fill:rgb(0, 0, 0)" d="M 0,0 l 48,0 0,48 -48,0 z M 48,0 l 48,0 0,48 -48,0 z M 96,0 l 48,0 0,48 -48,0 z M 144,0 l 48,0 0,48 -48,0 z M 192,0 l 48,0 0,48 -48,0 z M 240,0 l 48,0 0,48 -48,0 z M 288,0 l 48,0 0,48 -48,0 z M 480,0 l 48,0 0,48 -48,0 z M 576,0 l 48,0 0,48 -48,0 z M 720,0 l 48,0 0,48 -48,0 z M 864,0 l 48,0 0,48 -48,0 z M 912,0 l 48,0 0,48 -48,0 z M 960,0 l 48,0 0,48 -48,0 z M 1008,0 l 48,0 0,48 -48,0 z M 1056,0 l 48,0 0,48 -48,0 z M 1104,0 l 48,0 0,48 -48,0 z M 1152,0 l 48,0 0,48 -48,0 z M 0,48 l 48,0 0,48 -48,0 z M 288,48 l 48,0 0,48 -48,0 z M 384,48 l 48,0 0,48 -48,0 z M 480,48 l 48,0 0,48 -48,0 z M 624,48 l 48,0 0,48 -48,0 z M 672,48 l 48,0 0,48 -48,0 z M 864,48 l 48,0 0,48 -48,0 z M 1152,48 l 48,0 0,48 -48,0 z M 0,96 l 48,0 0,48 -48,0 z M 96,96 l 48,0 0,48 -48,0 z M 144,96 l 48,0 0,48 -48,0 z M 192,96 l 48,0 0,48 -48,0 z M 288,96 l 48,0 0,48 -48,0 z M 576,96 l 48,0 0,48 -48,0 z M 672,96 l 48,0 0,48 -48,0 z M 720,96 l 48,0 0,48 -48,0 z M 864,96 l 48,0 0,48 -48,0 z M 960,96 l 48,0 0,48 -48,0 z M 1008,96 l 48,0 0,48 -48,0 z M 1056,96 l 48,0 0,48 -48,0 z M 1152,96 l 48,0 0,48 -48,0 z M 0,144 l 48,0 0,48 -48,0 z M 96,144 l 48,0 0,48 -48,0 z M 144,144 l 48,0 0,48 -48,0 z M 192,144 l 48,0 0,48 -48,0 z M 288,144 l 48,0 0,48 -48,0 z M 384,144 l 48,0 0,48 -48,0 z M 432,144 l 48,0 0,48 -48,0 z M 480,144 l 48,0 0,48 -48,0 z M 576,144 l 48,0 0,48 -48,0 z M 720,144 l 48,0 0,48 -48,0 z M 768,144 l 48,0 0,48 -48,0 z M 864,144 l 48,0 0,48 -48,0 z M 960,144 l 48,0 0,48 -48,0 z M 1008,144 l 48,0 0,48 -48,0 z M 1056,144 l 48,0 0,48 -48,0 z M 1152,144 l 48,0 0,48 -48,0 z M 0,192 l 48,0 0,48 -48,0 z M 96,192 l 48,0 0,48 -48,0 z M 144,192 l 48,0 0,48 -48,0 z M 192,192 l 48,0 0,48 -48,0 z M 288,192 l 48,0 0,48 -48,0 z M 432,192 l 48,0 0,48 -48,0 z M 720,192 l 48,0 0,48 -48,0 z M 768,192 l 48,0 0,48 -48,0 z M 864,192 l 48,0 0,48 -48,0 z M 960,192 l 48,0 0,48 -48,0 z M 1008,192 l 48,0 0,48 -48,0 z M 1056,192 l 48,0 0,48 -48,0 z M 1152,192 l 48,0 0,48 -48,0 z M 0,240 l 48,0 0,48 -48,0 z M 288,240 l 48,0 0,48 -48,0 z M 384,240 l 48,0 0,48 -48,0 z M 432,240 l 48,0 0,48 -48,0 z M 528,240 l 48,0 0,48 -48,0 z M 576,240 l 48,0 0,48 -48,0 z M 768,240 l 48,0 0,48 -48,0 z M 864,240 l 48,0 0,48 -48,0 z M 1152,240 l 48,0 0,48 -48,0 z M 0,288 l 48,0 0,48 -48,0 z M 48,288 l 48,0 0,48 -48,0 z M 96,288 l 48,0 0,48 -48,0 z M 144,288 l 48,0 0,48 -48,0 z M 192,288 l 48,0 0,48 -48,0 z M 240,288 l 48,0 0,48 -48,0 z M 288,288 l 48,0 0,48 -48,0 z M 384,288 l 48,0 0,48 -48,0 z M 480,288 l 48,0 0,48 -48,0 z M 576,288 l 48,0 0,48 -48,0 z M 672,288 l 48,0 0,48 -48,0 z M 768,288 l 48,0 0,48 -48,0 z M 864,288 l 48,0 0,48 -48,0 z M 912,288 l 48,0 0,48 -48,0 z M 960,288 l 48,0 0,48 -48,0 z M 1008,288 l 48,0 0,48 -48,0 z M 1056,288 l 48,0 0,48 -48,0 z M 1104,288 l 48,0 0,48 -48,0 z M 1152,288 l 48,0 0,48 -48,0 z M 432,336 l 48,0 0,48 -48,0 z M 480,336 l 48,0 0,48 -48,0 z M 528,336 l 48,0 0,48 -48,0 z M 720,336 l 48,0 0,48 -48,0 z M 0,384 l 48,0 0,48 -48,0 z M 48,384 l 48,0 0,48 -48,0 z M 96,384 l 48,0 0,48 -48,0 z M 144,384 l 48,0 0,48 -48,0 z M 192,384 l 48,0 0,48 -48,0 z M 288,384 l 48,0 0,48 -48,0 z M 336,384 l 48,0 0,48 -48,0 z M 384,384 l 48,0 0,48 -48,0 z M 432,384 l 48,0 0,48 -48,0 z M 528,384 l 48,0 0,48 -48,0 z M 816,384 l 48,0 0,48 -48,0 z M 912,384 l 48,0 0,48 -48,0 z M 1008,384 l 48,0 0,48 -48,0 z M 1104,384 l 48,0 0,48 -48,0 z M 0,432 l 48,0 0,48 -48,0 z M 240,432 l 48,0 0,48 -48,0 z M 384,432 l 48,0 0,48 -48,0 z M 480,432 l 48,0 0,48 -48,0 z M 576,432 l 48,0 0,48 -48,0 z M 672,432 l 48,0 0,48 -48,0 z M 720,432 l 48,0 0,48 -48,0 z M 768,432 l 48,0 0,48 -48,0 z M 816,432 l 48,0 0,48 -48,0 z M 864,432 l 48,0 0,48 -48,0 z M 960,432 l 48,0 0,48 -48,0 z M 1104,432 l 48,0 0,48 -48,0 z M 144,480 l 48,0 0,48 -48,0 z M 192,480 l 48,0 0,48 -48,0 z M 288,480 l 48,0 0,48 -48,0 z M 384,480 l 48,0 0,48 -48,0 z M 480,480 l 48,0 0,48 -48,0 z M 672,480 l 48,0 0,48 -48,0 z M 720,480 l 48,0 0,48 -48,0 z M 768,480 l 48,0 0,48 -48,0 z M 816,480 l 48,0 0,48 -48,0 z M 864,480 l 48,0 0,48 -48,0 z M 912,480 l 48,0 0,48 -48,0 z M 1008,480 l 48,0 0,48 -48,0 z M 1104,480 l 48,0 0,48 -48,0 z M 1152,480 l 48,0 0,48 -48,0 z M 0,528 l 48,0 0,48 -48,0 z M 576,528 l 48,0 0,48 -48,0 z M 624,528 l 48,0 0,48 -48,0 z M 672,528 l 48,0 0,48 -48,0 z M 768,528 l 48,0 0,48 -48,0 z M 864,528 l 48,0 0,48 -48,0 z M 912,528 l 48,0 0,48 -48,0 z M 1152,528 l 48,0 0,48 -48,0 z M 0,576 l 48,0 0,48 -48,0 z M 144,576 l 48,0 0,48 -48,0 z M 192,576 l 48,0 0,48 -48,0 z M 240,576 l 48,0 0,48 -48,0 z M 288,576 l 48,0 0,48 -48,0 z M 336,576 l 48,0 0,48 -48,0 z M 432,576 l 48,0 0,48 -48,0 z M 480,576 l 48,0 0,48 -48,0 z M 576,576 l 48,0 0,48 -48,0 z M 720,576 l 48,0 0,48 -48,0 z M 768,576 l 48,0 0,48 -48,0 z M 960,576 l 48,0 0,48 -48,0 z M 1056,576 l 48,0 0,48 -48,0 z M 1104,576 l 48,0 0,48 -48,0 z M 1152,576 l 48,0 0,48 -48,0 z M 0,624 l 48,0 0,48 -48,0 z M 48,624 l 48,0 0,48 -48,0 z M 96,624 l 48,0 0,48 -48,0 z M 144,624 l 48,0 0,48 -48,0 z M 336,624 l 48,0 0,48 -48,0 z M 432,624 l 48,0 0,48 -48,0 z M 720,624 l 48,0 0,48 -48,0 z M 816,624 l 48,0 0,48 -48,0 z M 912,624 l 48,0 0,48 -48,0 z M 1008,624 l 48,0 0,48 -48,0 z M 1104,624 l 48,0 0,48 -48,0 z M 0,672 l 48,0 0,48 -48,0 z M 240,672 l 48,0 0,48 -48,0 z M 288,672 l 48,0 0,48 -48,0 z M 528,672 l 48,0 0,48 -48,0 z M 576,672 l 48,0 0,48 -48,0 z M 720,672 l 48,0 0,48 -48,0 z M 816,672 l 48,0 0,48 -48,0 z M 864,672 l 48,0 0,48 -48,0 z M 960,672 l 48,0 0,48 -48,0 z M 1008,672 l 48,0 0,48 -48,0 z M 1104,672 l 48,0 0,48 -48,0 z M 1152,672 l 48,0 0,48 -48,0 z M 0,720 l 48,0 0,48 -48,0 z M 144,720 l 48,0 0,48 -48,0 z M 240,720 l 48,0 0,48 -48,0 z M 384,720 l 48,0 0,48 -48,0 z M 480,720 l 48,0 0,48 -48,0 z M 528,720 l 48,0 0,48 -48,0 z M 768,720 l 48,0 0,48 -48,0 z M 816,720 l 48,0 0,48 -48,0 z M 1008,720 l 48,0 0,48 -48,0 z M 1152,720 l 48,0 0,48 -48,0 z M 0,768 l 48,0 0,48 -48,0 z M 240,768 l 48,0 0,48 -48,0 z M 288,768 l 48,0 0,48 -48,0 z M 432,768 l 48,0 0,48 -48,0 z M 480,768 l 48,0 0,48 -48,0 z M 528,768 l 48,0 0,48 -48,0 z M 720,768 l 48,0 0,48 -48,0 z M 768,768 l 48,0 0,48 -48,0 z M 816,768 l 48,0 0,48 -48,0 z M 864,768 l 48,0 0,48 -48,0 z M 912,768 l 48,0 0,48 -48,0 z M 960,768 l 48,0 0,48 -48,0 z M 1008,768 l 48,0 0,48 -48,0 z M 1056,768 l 48,0 0,48 -48,0 z M 384,816 l 48,0 0,48 -48,0 z M 432,816 l 48,0 0,48 -48,0 z M 576,816 l 48,0 0,48 -48,0 z M 624,816 l 48,0 0,48 -48,0 z M 768,816 l 48,0 0,48 -48,0 z M 960,816 l 48,0 0,48 -48,0 z M 1008,816 l 48,0 0,48 -48,0 z M 0,864 l 48,0 0,48 -48,0 z M 48,864 l 48,0 0,48 -48,0 z M 96,864 l 48,0 0,48 -48,0 z M 144,864 l 48,0 0,48 -48,0 z M 192,864 l 48,0 0,48 -48,0 z M 240,864 l 48,0 0,48 -48,0 z M 288,864 l 48,0 0,48 -48,0 z M 384,864 l 48,0 0,48 -48,0 z M 432,864 l 48,0 0,48 -48,0 z M 624,864 l 48,0 0,48 -48,0 z M 672,864 l 48,0 0,48 -48,0 z M 720,864 l 48,0 0,48 -48,0 z M 768,864 l 48,0 0,48 -48,0 z M 864,864 l 48,0 0,48 -48,0 z M 960,864 l 48,0 0,48 -48,0 z M 1008,864 l 48,0 0,48 -48,0 z M 1104,864 l 48,0 0,48 -48,0 z M 1152,864 l 48,0 0,48 -48,0 z M 0,912 l 48,0 0,48 -48,0 z M 288,912 l 48,0 0,48 -48,0 z M 480,912 l 48,0 0,48 -48,0 z M 576,912 l 48,0 0,48 -48,0 z M 624,912 l 48,0 0,48 -48,0 z M 720,912 l 48,0 0,48 -48,0 z M 768,912 l 48,0 0,48 -48,0 z M 960,912 l 48,0 0,48 -48,0 z M 1008,912 l 48,0 0,48 -48,0 z M 1056,912 l 48,0 0,48 -48,0 z M 1152,912 l 48,0 0,48 -48,0 z M 0,960 l 48,0 0,48 -48,0 z M 96,960 l 48,0 0,48 -48,0 z M 144,960 l 48,0 0,48 -48,0 z M 192,960 l 48,0 0,48 -48,0 z M 288,960 l 48,0 0,48 -48,0 z M 384,960 l 48,0 0,48 -48,0 z M 432,960 l 48,0 0,48 -48,0 z M 480,960 l 48,0 0,48 -48,0 z M 576,960 l 48,0 0,48 -48,0 z M 672,960 l 48,0 0,48 -48,0 z M 720,960 l 48,0 0,48 -48,0 z M 768,960 l 48,0 0,48 -48,0 z M 816,960 l 48,0 0,48 -48,0 z M 864,960 l 48,0 0,48 -48,0 z M 912,960 l 48,0 0,48 -48,0 z M 960,960 l 48,0 0,48 -48,0 z M 1008,960 l 48,0 0,48 -48,0 z M 1056,960 l 48,0 0,48 -48,0 z M 1104,960 l 48,0 0,48 -48,0 z M 1152,960 l 48,0 0,48 -48,0 z M 0,1008 l 48,0 0,48 -48,0 z M 96,1008 l 48,0 0,48 -48,0 z M 144,1008 l 48,0 0,48 -48,0 z M 192,1008 l 48,0 0,48 -48,0 z M 288,1008 l 48,0 0,48 -48,0 z M 384,1008 l 48,0 0,48 -48,0 z M 432,1008 l 48,0 0,48 -48,0 z M 480,1008 l 48,0 0,48 -48,0 z M 720,1008 l 48,0 0,48 -48,0 z M 768,1008 l 48,0 0,48 -48,0 z M 816,1008 l 48,0 0,48 -48,0 z M 864,1008 l 48,0 0,48 -48,0 z M 912,1008 l 48,0 0,48 -48,0 z M 960,1008 l 48,0 0,48 -48,0 z M 1056,1008 l 48,0 0,48 -48,0 z M 1152,1008 l 48,0 0,48 -48,0 z M 0,1056 l 48,0 0,48 -48,0 z M 96,1056 l 48,0 0,48 -48,0 z M 144,1056 l 48,0 0,48 -48,0 z M 192,1056 l 48,0 0,48 -48,0 z M 288,1056 l 48,0 0,48 -48,0 z M 384,1056 l 48,0 0,48 -48,0 z M 432,1056 l 48,0 0,48 -48,0 z M 480,1056 l 48,0 0,48 -48,0 z M 528,1056 l 48,0 0,48 -48,0 z M 576,1056 l 48,0 0,48 -48,0 z M 720,1056 l 48,0 0,48 -48,0 z M 816,1056 l 48,0 0,48 -48,0 z M 912,1056 l 48,0 0,48 -48,0 z M 960,1056 l 48,0 0,48 -48,0 z M 1056,1056 l 48,0 0,48 -48,0 z M 1152,1056 l 48,0 0,48 -48,0 z M 0,1104 l 48,0 0,48 -48,0 z M 288,1104 l 48,0 0,48 -48,0 z M 384,1104 l 48,0 0,48 -48,0 z M 528,1104 l 48,0 0,48 -48,0 z M 672,1104 l 48,0 0,48 -48,0 z M 720,1104 l 48,0 0,48 -48,0 z M 768,1104 l 48,0 0,48 -48,0 z M 816,1104 l 48,0 0,48 -48,0 z M 864,1104 l 48,0 0,48 -48,0 z M 912,1104 l 48,0 0,48 -48,0 z M 960,1104 l 48,0 0,48 -48,0 z M 1056,1104 l 48,0 0,48 -48,0 z M 1152,1104 l 48,0 0,48 -48,0 z M 0,1152 l 48,0 0,48 -48,0 z M 48,1152 l 48,0 0,48 -48,0 z M 96,1152 l 48,0 0,48 -48,0 z M 144,1152 l 48,0 0,48 -48,0 z M 192,1152 l 48,0 0,48 -48,0 z M 240,1152 l 48,0 0,48 -48,0 z M 288,1152 l 48,0 0,48 -48,0 z M 384,1152 l 48,0 0,48 -48,0 z M 528,1152 l 48,0 0,48 -48,0 z M 720,1152 l 48,0 0,48 -48,0 z M 768,1152 l 48,0 0,48 -48,0 z M 912,1152 l 48,0 0,48 -48,0 z M 1008,1152 l 48,0 0,48 -48,0 z M 1056,1152 l 48,0 0,48 -48,0 z M 1104,1152 l 48,0 0,48 -48,0 z M 1152,1152 l 48,0 0,48 -48,0 z " />
	</g>
</svg>
